<?xml version="1.0" standalone="no"?>
<!DOCTYPE svg PUBLIC "-//W3C//DTD SVG 20010904//EN"
 "http://www.w3.org/TR/2001/REC-SVG-20010904/DTD/svg10.dtd">
<svg version="1.0" xmlns="http://www.w3.org/2000/svg"
 width="96.000000pt" height="96.000000pt" viewBox="0 0 96.000000 96.000000"
 preserveAspectRatio="xMidYMid meet">

<g transform="translate(0.000000,96.000000) scale(0.100000,-0.100000)"
fill="#000000" stroke="none">
<path d="M156 950 c-74 -22 -140 -99 -151 -174 -4 -22 -5 -171 -3 -331 3 -316
4 -318 64 -379 61 -61 62 -61 391 -64 207 -2 315 1 345 9 56 15 132 89 147
144 14 53 15 596 0 649 -15 54 -80 121 -136 140 -38 13 -97 16 -337 15 -160 0
-304 -5 -320 -9z m285 -265 l40 -26 26 21 c86 68 204 30 233 -77 11 -38 11
-53 -4 -97 -19 -63 -72 -140 -88 -130 -7 5 -8 3 -4 -5 12 -18 -25 -56 -37 -39
-6 9 -7 8 -4 -4 8 -22 -21 -47 -33 -29 -5 8 -10 9 -14 3 -3 -6 0 -12 6 -15 12
-3 -18 -35 -71 -73 -19 -15 -36 -3 -148 108 -92 91 -124 147 -130 228 -5 69
18 116 73 148 49 28 99 24 155 -13z"/>
<path d="M470 226 c7 -7 13 -7 20 0 6 6 3 10 -10 10 -13 0 -16 -4 -10 -10z"/>
</g>
</svg>
