<svg xmlns="http://www.w3.org/2000/svg" viewBox="0 0 128 128" role="img" aria-label="Neon pink heart favicon">
  <defs>
    <radialGradient id="bg" cx="50%" cy="45%" r="70%">
      <stop offset="0%" stop-color="#2b1438"/>
      <stop offset="100%" stop-color="#120b1b"/>
    </radialGradient>
    <linearGradient id="heart" x1="0" y1="0" x2="1" y2="1">
      <stop offset="0%" stop-color="#ff9add"/>
      <stop offset="55%" stop-color="#ff4fb3"/>
      <stop offset="100%" stop-color="#ff2f9e"/>
    </linearGradient>
    <filter id="glow" x="-70%" y="-70%" width="240%" height="240%">
      <feDropShadow dx="0" dy="0" stdDeviation="6" flood-color="#ff5bbb" flood-opacity="0.9"/>
      <feDropShadow dx="0" dy="0" stdDeviation="2" flood-color="#ffd1ec" flood-opacity="0.95"/>
    </filter>
  </defs>

  <rect width="128" height="128" rx="28" fill="url(#bg)"/>

  <path
    d="M64 105.5C62.8 104.5 59.8 102.2 55.8 99.1C38.6 85.7 24 74.1 24 55.8C24 43.1 33.9 33.2 46.6 33.2C54.6 33.2 60.6 37.1 64 43.2C67.4 37.1 73.4 33.2 81.4 33.2C94.1 33.2 104 43.1 104 55.8C104 74.1 89.4 85.7 72.2 99.1C68.2 102.2 65.2 104.5 64 105.5Z"
    fill="url(#heart)"
    filter="url(#glow)"
  />

  <path
    d="M42 46C47 39.5 57.3 40.7 62.5 50"
    fill="none"
    stroke="#ffe2f4"
    stroke-width="4"
    stroke-linecap="round"
    opacity="0.75"
  />
</svg>
